<?xml version="1.0" standalone="no"?>
<!DOCTYPE svg PUBLIC "-//W3C//DTD SVG 20010904//EN"
 "http://www.w3.org/TR/2001/REC-SVG-20010904/DTD/svg10.dtd">
<svg version="1.0" xmlns="http://www.w3.org/2000/svg"
 width="126.000000pt" height="126.000000pt" viewBox="0 0 126.000000 126.000000"
 preserveAspectRatio="xMidYMid meet">
<metadata>
Created by potrace 1.11, written by Peter Selinger 2001-2013
</metadata>
<g transform="translate(0.000000,126.000000) scale(0.100000,-0.100000)"
fill="#000000" stroke="none">
<path d="M707 1095 c-10 -24 -24 -45 -30 -48 -7 -2 -37 8 -67 24 -30 15 -61
31 -68 35 -7 4 -36 -1 -64 -10 -28 -9 -68 -16 -89 -16 -28 0 -41 -5 -49 -19
-5 -11 -19 -23 -30 -26 -11 -4 -29 -23 -39 -44 -11 -20 -27 -43 -35 -50 -9 -8
-16 -23 -16 -34 0 -11 -7 -29 -16 -38 -36 -40 -56 -236 -31 -297 8 -21 20 -62
27 -92 17 -75 47 -119 129 -184 78 -62 89 -87 77 -176 -6 -47 -5 -49 31 -79
42 -35 85 -50 91 -33 2 8 11 8 28 1 55 -20 131 -2 93 22 -11 7 -10 9 4 9 9 0
17 4 17 10 0 5 10 9 23 7 19 -2 22 3 25 40 3 47 1 49 -28 31 -17 -11 -24 -9
-47 15 -34 33 -24 45 39 50 l47 3 0 -40 c0 -23 2 -56 5 -74 4 -26 1 -35 -19
-48 -32 -21 -23 -34 24 -34 45 0 51 11 51 103 0 31 3 57 8 57 16 0 62 -70 62
-94 0 -35 17 -33 25 3 4 17 -1 50 -12 82 -20 60 -24 194 -7 269 l10 45 74 2
c137 5 178 23 206 89 15 36 3 91 -17 79 -18 -12 -61 4 -55 20 7 19 -14 19 -39
1 -13 -9 -20 -30 -23 -70 -3 -36 -10 -60 -18 -63 -11 -4 -66 11 -82 23 -2 1 3
12 10 23 11 19 10 24 -8 39 -17 13 -23 33 -28 87 -4 40 -17 93 -31 124 -14 29
-25 61 -25 70 0 28 -54 104 -93 131 -37 25 -50 47 -22 36 12 -4 15 3 15 34 0
54 -12 56 -33 5z m9 -151 c45 -27 82 -69 70 -81 -3 -3 -1 -12 6 -20 19 -24 0
-26 -31 -3 -17 12 -31 19 -31 16 0 -3 -10 -1 -22 3 -29 11 -94 -22 -102 -51
-6 -24 -31 -19 -31 5 0 16 -8 19 -31 10 -5 -2 -25 3 -44 11 -29 12 -40 12 -72
0 -21 -7 -38 -10 -39 -6 0 4 -4 -2 -9 -13 -8 -18 -9 -19 -9 -1 -1 12 -6 16
-16 12 -9 -3 -15 0 -15 10 0 10 6 13 18 10 11 -4 37 11 75 44 46 39 67 50 105
55 26 3 58 9 72 14 42 15 60 12 106 -15z m24 -134 c0 -5 -7 -10 -16 -10 -8 0
-12 5 -9 10 3 6 10 10 16 10 5 0 9 -4 9 -10z m-275 -30 c-3 -5 -13 -10 -21
-10 -8 0 -14 5 -14 10 0 6 9 10 21 10 11 0 17 -4 14 -10z m164 -26 c-9 -11 -8
-14 5 -14 9 0 16 -8 16 -20 0 -28 -35 -26 -54 2 -20 28 -20 33 0 53 21 21 51
1 33 -21z m136 -18 c0 -16 6 -31 13 -33 6 -3 12 2 12 11 0 9 4 16 9 16 12 0
25 -56 16 -69 -3 -6 0 -39 6 -75 10 -53 16 -66 33 -69 12 -3 -7 -4 -41 -4 -65
1 -72 4 -51 25 9 9 9 15 0 24 -7 7 -12 21 -12 31 0 11 -11 28 -25 39 -14 11
-25 28 -25 39 0 11 -6 35 -14 53 -18 42 -7 55 42 47 32 -6 36 -10 37 -35z
m-266 7 c-4 -23 3 -31 22 -26 19 5 20 4 10 -15 -6 -12 -9 -33 -5 -46 4 -19 0
-27 -18 -37 -12 -7 -26 -13 -29 -12 -14 4 -2 -77 14 -94 19 -21 23 -38 7 -28
-11 7 -13 -6 -4 -29 3 -9 14 -16 23 -16 13 0 13 -2 2 -9 -10 -6 -5 -13 20 -25
32 -16 48 -10 49 17 0 4 7 7 15 7 22 0 18 21 -5 27 -20 5 -20 7 -4 24 23 26
104 27 104 2 0 -9 -7 -25 -17 -35 -22 -24 -13 -30 20 -13 17 9 27 10 27 3 0
-7 5 -6 15 2 12 10 16 9 21 -3 3 -9 12 -13 20 -10 23 9 16 -17 -17 -58 -17
-21 -38 -39 -48 -39 -9 0 -22 -5 -27 -10 -8 -8 -24 -6 -55 5 -24 9 -58 21 -76
26 -39 12 -79 58 -108 124 -29 66 -36 97 -25 115 6 9 3 18 -7 25 -13 10 -13
15 3 46 11 19 27 34 37 34 9 0 17 5 16 10 0 6 -13 9 -30 7 -16 -1 -29 2 -29 8
0 5 9 10 19 10 11 0 23 5 26 10 7 12 36 14 34 3z m-99 -73 c0 -5 -4 -10 -10
-10 -5 0 -10 5 -10 10 0 6 5 10 10 10 6 0 10 -4 10 -10z m262 -52 c-14 -13
-82 -13 -82 0 0 4 20 7 44 7 25 0 42 -3 38 -7z m232 -22 c-3 -8 -1 -17 5 -21
16 -9 13 -42 -4 -49 -10 -4 -19 2 -25 18 -11 30 -2 66 16 66 7 0 11 -6 8 -14z
m214 2 c-6 -18 -28 -21 -28 -4 0 9 7 16 16 16 9 0 14 -5 12 -12z m-399 -50
c29 -20 20 -43 -11 -27 -21 11 -99 4 -130 -12 -13 -7 -15 -5 -11 11 6 24 19
35 58 47 34 11 59 6 94 -19z m-395 -50 c20 -28 20 -54 2 -61 -9 -4 -17 7 -25
32 -6 21 -11 41 -11 45 0 14 20 5 34 -16z m-51 -47 c-9 -12 -25 20 -18 36 7
16 9 15 15 -7 4 -14 5 -27 3 -29z"/>
<path d="M717 729 c7 -7 15 -10 18 -7 3 3 -2 9 -12 12 -14 6 -15 5 -6 -5z"/>
<path d="M771 606 c7 -15 15 -23 17 -16 3 7 -3 19 -13 28 -15 16 -16 15 -4
-12z"/>
<path d="M382 30 c0 -14 2 -19 5 -12 2 6 2 18 0 25 -3 6 -5 1 -5 -13z"/>
</g>
</svg>
